<svg width="32" height="32" viewBox="0 0 32 32" fill="white" xmlns="http://www.w3.org/2000/svg">
<rect x="0.5" y="0.5" width="31" height="31" rx="3.5" stroke="white"/>
<path d="M19.5286 11.5286C19.7889 11.2683 20.2111 11.2683 20.4714 11.5286C20.7318 11.789 20.7318 12.2111 20.4714 12.4714L16.9428 16L20.8047 19.8619C21.0651 20.1223 21.0651 20.5444 20.8047 20.8047C20.5444 21.0651 20.1223 21.0651 19.8619 20.8047L16 16.9428L12.1381 20.8047C11.8777 21.0651 11.4556 21.0651 11.1953 20.8047C10.9349 20.5444 10.9349 20.1223 11.1953 19.8619L15.0572 16L11.5286 12.4714C11.2682 12.2111 11.2682 11.789 11.5286 11.5286C11.7889 11.2683 12.2111 11.2683 12.4714 11.5286L16 15.0572L19.5286 11.5286Z" fill="white"/>
</svg>
